<svg width="32" height="32" viewBox="0 0 32 32" fill="none" xmlns="http://www.w3.org/2000/svg">
<path d="M21.7406 17.0235C21.7139 17.014 21.6863 17.0069 21.6583 17.0022L21.6513 16.9968L21.5873 16.9533C21.5335 16.9208 21.4776 16.8919 21.42 16.8667C21.2642 16.8001 21.103 16.7466 20.9383 16.7069C19.7683 16.441 18.6765 15.9058 17.7496 15.144C15.6694 13.288 14.3373 10.7372 14.003 7.96953C13.9326 7.57125 13.8827 7.16962 13.8535 6.76622L13.8265 6.46129L13.8129 6.30852L13.806 6.23204L13.8042 6.21299C13.8008 6.15799 13.7913 6.10354 13.7759 6.05063C13.7396 5.92311 13.6658 5.80941 13.5642 5.72421C13.4626 5.63902 13.3378 5.58625 13.2059 5.57271C13.074 5.55917 12.9411 5.5855 12.8243 5.64828C12.7075 5.71106 12.6123 5.80742 12.5508 5.9249C12.5035 6.01711 12.4761 6.1182 12.4704 6.22165L12.4636 6.29184C12.4003 6.29532 12.4071 6.29551 12.4636 6.29184L12.463 6.29819L12.4484 6.45139L12.4193 6.75821C12.347 7.57768 12.21 8.39014 12.0095 9.18799C11.6368 10.7338 10.967 12.1923 10.0374 13.4824C9.21231 14.6055 8.12372 15.5085 6.8675 16.1119L6.2317 16.3622C5.92335 16.4721 5.49726 16.5557 5.2671 16.6547L4.46894 16.9351L4.08082 17.0715C4.01521 17.1063 4.04975 17.1245 4.02949 17.1515L3.98658 17.2974L3.96589 17.368C3.96274 17.3971 3.96138 17.4263 3.9618 17.4556C3.96038 17.474 3.96299 17.4924 3.96943 17.5097L4.04621 17.7683C4.21922 17.9023 4.40089 18.0247 4.59004 18.1347C5.24651 18.2132 5.89072 18.3728 6.50795 18.6097L6.78852 18.7188C6.8669 18.748 6.94278 18.7836 7.01539 18.8251L7.49639 19.0736C8.24819 19.5166 8.92955 20.0695 9.51789 20.714C10.9011 22.3374 11.8374 24.2932 12.2345 26.3887C12.352 26.9686 12.4385 27.5544 12.4937 28.1434L12.5377 28.5841L12.5432 28.639C12.5463 28.6873 12.554 28.7351 12.5663 28.7819C12.5974 28.9015 12.6653 29.0083 12.7604 29.0872C12.8554 29.1662 12.9729 29.2132 13.0962 29.2218C13.2194 29.2304 13.3423 29.2 13.4474 29.135C13.5525 29.07 13.6345 28.9737 13.6819 28.8596C13.7099 28.7918 13.7264 28.7198 13.7308 28.6466L13.7331 28.6191L13.7517 28.3997L13.8262 27.5288C13.9599 26.4373 14.2071 25.3628 14.564 24.3227C15.066 22.8194 15.9026 21.4496 17.0109 20.3167C17.919 19.3984 19.0348 18.7123 20.2641 18.3163C21.0934 18.0424 21.5754 18.0166 21.6593 17.9288C21.7096 17.893 21.6159 17.7438 21.7168 17.7457C21.808 17.7277 21.8885 17.6749 21.9413 17.5984C21.994 17.5219 22.0148 17.4279 21.9993 17.3363C21.9872 17.2527 21.9479 17.1754 21.8876 17.1164C21.8457 17.0754 21.7956 17.0438 21.7406 17.0235Z" fill="#FFFAF0"/>
<path d="M27.8989 8.73255C27.851 8.64747 27.7725 8.58386 27.6793 8.55469C27.5637 8.52893 27.6419 8.53675 27.6132 8.52619L27.5898 8.48944C27.5717 8.4644 27.551 8.44128 27.5282 8.42044C27.4759 8.37329 27.4154 8.33611 27.3498 8.31076C27.153 8.25686 26.96 8.18971 26.7723 8.10976C26.3136 7.88924 25.9149 7.56136 25.61 7.15394C25.5093 7.02237 25.4167 6.88472 25.333 6.74177L25.2041 6.51201L25.0471 6.17326C24.9672 5.96382 24.9015 5.74922 24.8504 5.53093C24.7916 5.28862 24.7213 5.1071 24.6712 4.79887C24.6169 4.51427 24.5621 4.22716 24.5067 3.93754C24.4943 3.84032 24.4757 3.84825 24.4587 3.83037L24.4068 3.78471L24.3022 3.69316L24.2009 3.60692L24.1464 3.58292L24.0458 3.54032L23.9993 3.52158L23.9875 3.51725C23.9802 3.51474 23.9435 3.51706 23.9534 3.5178L23.9299 3.52335C23.916 3.52341 23.8354 3.54819 23.7558 3.57126C23.6837 3.61659 23.615 3.6672 23.5504 3.72269C23.5087 3.75056 23.4708 3.78383 23.4379 3.82163L23.3109 4.17463C23.2566 4.82797 23.1168 5.47135 22.895 6.08826C22.7663 6.38135 22.7473 6.41504 22.6893 6.52552L22.5228 6.80964C22.3067 7.15352 22.0309 7.45597 21.7083 7.7027C21.6729 7.73265 21.6351 7.75954 21.5951 7.78309L21.4162 7.90125C21.1822 8.01146 20.9372 8.09649 20.6852 8.15491C20.562 8.18628 20.441 8.22545 20.3227 8.27216L20.0062 8.39552C19.8415 8.48896 19.7213 8.60401 19.7538 8.65363L19.6928 8.82203L19.6858 8.8924C19.6828 8.9448 19.6854 8.99738 19.6938 9.0492L19.7481 9.1933L19.7701 9.25013L19.7828 9.2829L19.8674 9.336C19.9879 9.41059 20.1306 9.49909 20.3022 9.60547C20.5648 9.66395 20.8198 9.75135 21.1386 9.8404C21.2796 9.88051 21.4124 9.94547 21.5305 10.0322L21.6868 10.1325C21.9292 10.3129 22.1484 10.5227 22.3392 10.757C22.4492 10.896 22.55 11.0419 22.6411 11.194C22.7813 11.4174 22.8971 11.6552 22.9866 11.9034C23.2647 12.6103 23.3385 13.9707 23.7219 14.122C23.745 14.1695 23.7813 14.2094 23.8265 14.237C23.8716 14.2646 23.9237 14.2787 23.9766 14.2777C24.1217 14.2777 24.378 14.3481 24.5705 13.4332C24.7411 12.622 24.8035 12.1922 24.9477 11.7241C25.0506 11.4778 25.0913 11.4078 25.1319 11.3171L25.2776 11.0625C25.4312 10.8069 25.6179 10.5727 25.8329 10.3661C26.3635 9.93293 26.9719 9.60506 27.6255 9.40007C27.6437 9.36967 27.5849 9.21361 27.6698 9.22118C27.7227 9.2135 27.773 9.1928 27.8159 9.16093C27.8589 9.12906 27.8933 9.08701 27.916 9.03858C27.9387 8.99014 27.949 8.93682 27.946 8.88341C27.9431 8.83 27.9269 8.77816 27.8989 8.73255Z" fill="#FFFAF0"/>
</svg>
